<?xml version="1.0" encoding="UTF-8"?>
<svg width="42px" height="42px" viewBox="0 0 42 42" version="1.1" xmlns="http://www.w3.org/2000/svg" xmlns:xlink="http://www.w3.org/1999/xlink">
    <!-- Generator: Sketch 63.1 (92452) - https://sketch.com -->
    <title>iconCart</title>
    <desc>Created with Sketch.</desc>
    <g id="iconCart" stroke="none" stroke-width="1" fill="none" fill-rule="evenodd">
        <g id="Icons/cart_icn" transform="translate(9.000000, 9.000000)">
            <rect id="bg" x="0" y="0" width="24" height="24"></rect>
            <path d="M15,5.44444444 C15,3.52001208 13.6319891,2 12,2 C10.4242864,2 9.09465946,3.41699105 9.00483468,5.24685362 L9,5.44444444 L9,8 L7,8 L7,5.44444444 C7,2.45967903 9.21371113,0 12,0 C14.7166317,0 16.8889566,2.33823238 16.9958749,5.2216018 L17,5.44444444 L17,8 L18.8866314,8 C19.8403096,8 20.6381584,8.69483563 20.730442,9.60574938 L21.991174,22.0501938 C22.0901763,23.0274258 21.3449313,23.8966485 20.3266228,23.9916572 C20.2670452,23.9972158 20.2072219,24 20.1473634,24 L3.85250415,24 C2.82939436,24 2,23.2040618 2,22.2222222 C2,22.1647783 2.00290124,22.1073682 2.0086935,22.0501938 L3.26942549,9.60574938 C3.36170909,8.69483563 4.15955796,8 5.11323614,8 L15,8 L15,5.44444444 Z M18.762068,10 L5.23791876,10 L4,22 L20,22 L18.762068,10 Z" id="cart_icn" fill="#1B2437" fill-rule="nonzero"></path>
        </g>
    </g>
</svg>