<?xml version="1.0" encoding="UTF-8"?>
<svg width="42px" height="42px" viewBox="0 0 42 42" version="1.1" xmlns="http://www.w3.org/2000/svg" xmlns:xlink="http://www.w3.org/1999/xlink">
    <!-- Generator: Sketch 63.1 (92452) - https://sketch.com -->
    <title>iconActiveStar</title>
    <desc>Created with Sketch.</desc>
    <g id="iconActiveStar" stroke="none" stroke-width="1" fill="none" fill-rule="evenodd">
        <g id="Other/rating_range_default" transform="translate(-63.000000, 9.000000)">
            <g id="Icons/star_active">
                <g id="star_active">
                    <rect id="bg" x="0" y="0" width="24" height="24"></rect>
                    <polygon fill="#F4A2B6" points="12 18.6810333 19.416 23 17.448 14.86 24 9.383155 15.372 8.676845 12 1 8.628 8.676845 0 9.383155 6.552 14.86 4.584 23"></polygon>
                </g>
            </g>
            <g id="Icons/star_active" transform="translate(36.000000, 0.000000)">
                <g id="star_active">
                    <rect id="bg" x="0" y="0" width="24" height="24"></rect>
                    <polygon fill="#F4A2B6" points="12 18.6810333 19.416 23 17.448 14.86 24 9.383155 15.372 8.676845 12 1 8.628 8.676845 0 9.383155 6.552 14.86 4.584 23"></polygon>
                </g>
            </g>
            <g id="Icons/star_active" transform="translate(72.000000, 0.000000)">
                <g id="star_active">
                    <rect id="bg" x="0" y="0" width="24" height="24"></rect>
                    <polygon fill="#F4A2B6" points="12 18.6810333 19.416 23 17.448 14.86 24 9.383155 15.372 8.676845 12 1 8.628 8.676845 0 9.383155 6.552 14.86 4.584 23"></polygon>
                </g>
            </g>
            <g id="Icons/star_active" transform="translate(108.000000, 0.000000)">
                <g id="star_active">
                    <rect id="bg" x="0" y="0" width="24" height="24"></rect>
                    <polygon fill="#F4A2B6" points="12 18.6810333 19.416 23 17.448 14.86 24 9.383155 15.372 8.676845 12 1 8.628 8.676845 0 9.383155 6.552 14.86 4.584 23"></polygon>
                </g>
            </g>
            <g id="Icons/star_inactive" transform="translate(144.000000, 0.000000)">
                <g id="star_active">
                    <rect id="bg" x="0" y="0" width="24" height="24"></rect>
                    <polygon fill="#C7C7CC" points="12 18.6810333 19.416 23 17.448 14.86 24 9.383155 15.372 8.676845 12 1 8.628 8.676845 0 9.383155 6.552 14.86 4.584 23"></polygon>
                </g>
            </g>
        </g>
    </g>
</svg>