<?xml version="1.0" encoding="UTF-8"?>
<svg width="42px" height="42px" viewBox="0 0 42 42" version="1.1" xmlns="http://www.w3.org/2000/svg" xmlns:xlink="http://www.w3.org/1999/xlink">
    <!-- Generator: Sketch 63.1 (92452) - https://sketch.com -->
    <title>iconLogo</title>
    <desc>Created with Sketch.</desc>
    <g id="iconLogo" stroke="none" stroke-width="1" fill="none" fill-rule="evenodd">
        <g id="Other/clay_shop_logo_small" transform="translate(9.000000, 9.000000)" fill="#1B2437">
            <path d="M12.9166667,21.1213833 C17.3711167,20.6790917 20.8875417,17.0480833 21.1508083,12.5432167 L12.9166667,12.5432167 L12.9166667,21.1213833 Z M22.9868,12.5432167 L23,12.5432167 L23,12 L23,1 L12,1 C5.924865,1 1,5.924865 1,12 C1,18.0751167 5.924865,23 12,23 C17.892975,23 22.7036417,18.365975 22.9868,12.5432167 Z M12,2.83333333 C6.9373875,2.83333333 2.83333333,6.9373875 2.83333333,12 C2.83333333,16.7531917 6.45112333,20.6614917 11.0833333,21.1213833 L11.0833333,10.7098833 L21.1666667,10.7098833 L21.1666667,2.83333333 L12,2.83333333 Z" id="logo"></path>
        </g>
    </g>
</svg>