<?xml version="1.0" encoding="UTF-8"?>
<svg width="54px" height="54px" viewBox="0 0 54 54" version="1.1" xmlns="http://www.w3.org/2000/svg" xmlns:xlink="http://www.w3.org/1999/xlink">
    <!-- Generator: Sketch 63.1 (92452) - https://sketch.com -->
    <title>iconFavourite</title>
    <desc>Created with Sketch.</desc>
    <g id="iconFavourite" stroke="none" stroke-width="1" fill="none" fill-rule="evenodd">
        <g id="add_to_favorite_pink" transform="translate(6.000000, 6.000000)">
            <g id="add_to_favorite_white">
                <circle id="Oval" fill="#EDA3B5" opacity="0.100000001" cx="22" cy="22" r="22"></circle>
                <g id="Icons/heart_icn_pink" transform="translate(10.000000, 10.000000)">
                    <rect id="bg" x="0" y="0" width="24" height="24"></rect>
                    <path d="M17.2955932,3 C16.1258534,3 15.0543988,3.34594459 14.1113809,4.02908916 C13.622922,4.3828935 13.1814105,4.81669744 12.7914241,5.32162311 C12.470847,5.73668286 12.2055667,6.17328461 11.9997118,6.62772196 C11.7940307,6.1734289 11.5289404,5.73657643 11.2084556,5.32146734 C10.8186394,4.81655664 10.3769606,4.38279069 9.88872822,4.02903557 C8.94578429,3.34594459 7.87432969,3 6.70458984,3 C5.12838069,3 3.67453418,3.58399628 2.61659524,4.65876496 C1.56837871,5.72376893 1,7.1812213 1,8.75590849 C1,10.435263 1.70182836,11.9568201 3.12931482,13.5702412 C4.55055661,15.1764769 6.59779355,16.8021059 8.96705424,18.6933327 C9.79469668,19.3539269 10.7328017,20.1028664 12.2936864,20.9003962 C13.2692154,20.1013201 14.2088257,19.3511476 15.0383471,18.6891944 C17.4028084,16.8017474 19.4496917,15.1763995 20.87086,13.5700791 C22.2983691,11.9567833 23,10.4352383 23,8.75590849 C23,7.18122865 22.4318044,5.72376892 21.3835509,4.65872734 C20.3256489,3.58399629 18.8716467,3 17.2955932,3 Z" id="heart_icn" stroke="#EDA3B5" stroke-width="2" fill-rule="nonzero"></path>
                </g>
            </g>
        </g>
    </g>
</svg>